<?xml version="1.0" encoding="UTF-8" standalone="no"?>
<!-- Created with Inkscape (http://www.inkscape.org/) -->

<svg
   width="30mm"
   height="30mm"
   viewBox="0 0 30 30"
   version="1.1"
   id="svg1"
   xml:space="preserve"
   inkscape:version="1.4.4 (dcaf3e7, 2026-05-05)"
   sodipodi:docname="toolbar_hira_dark_lock.svg"
   inkscape:export-filename="../256/toolbar_hira_dark.png"
   inkscape:export-xdpi="216.74667"
   inkscape:export-ydpi="216.74667"
   xmlns:inkscape="http://www.inkscape.org/namespaces/inkscape"
   xmlns:sodipodi="http://sodipodi.sourceforge.net/DTD/sodipodi-0.dtd"
   xmlns="http://www.w3.org/2000/svg"
   xmlns:svg="http://www.w3.org/2000/svg"><sodipodi:namedview
     id="namedview1"
     pagecolor="#ffffff"
     bordercolor="#000000"
     borderopacity="0.25"
     inkscape:showpageshadow="2"
     inkscape:pageopacity="0.0"
     inkscape:pagecheckerboard="0"
     inkscape:deskcolor="#d1d1d1"
     inkscape:document-units="mm"
     showguides="true"
     inkscape:zoom="2.3686818"
     inkscape:cx="-8.4435149"
     inkscape:cy="-3.7995817"
     inkscape:window-width="1512"
     inkscape:window-height="921"
     inkscape:window-x="0"
     inkscape:window-y="33"
     inkscape:window-maximized="1"
     inkscape:current-layer="layer1"
     showgrid="false"><sodipodi:guide
       position="19.31344,25.919696"
       orientation="0,-1"
       id="guide1"
       inkscape:locked="false" /><sodipodi:guide
       position="12.979936,270.43154"
       orientation="0,-1"
       id="guide2"
       inkscape:locked="false" /><sodipodi:guide
       position="3.9639517,279.17019"
       orientation="1,0"
       id="guide3"
       inkscape:locked="false" /><sodipodi:guide
       position="26.022565,275.55875"
       orientation="1,0"
       id="guide4"
       inkscape:locked="false" /><sodipodi:guide
       position="-11.297157,4.0017402"
       orientation="0,-1"
       id="guide5"
       inkscape:locked="false" /></sodipodi:namedview><defs
     id="defs1" /><g
     inkscape:label="Dark"
     inkscape:groupmode="layer"
     id="layer1"
     style="display:inline"><path
       style="font-weight:bold;font-size:26.1854px;line-height:1.2;font-family:'Noto Serif CJK JP';-inkscape-font-specification:'Noto Serif CJK JP, Bold';font-variation-settings:'opsz' 32, 'wght' 300;text-orientation:upright;fill:#ffffff;stroke-width:1.22744;paint-order:markers stroke fill"
       d="m 9.0690149,10.80489 c 0.785562,0 1.6234951,-0.05237 2.4614271,-0.157113 -0.157112,1.073602 -0.34041,2.199574 -0.445151,3.273175 -3.5612147,1.780608 -6.6510919,5.001412 -6.6510919,8.405514 0,1.571124 0.8641182,2.382871 2.1733882,2.382871 1.6496802,0 3.6397707,-0.837933 5.5251197,-2.382871 0.366595,0.628449 0.837932,0.995045 1.414011,0.995045 0.733191,0 1.256899,-0.34041 1.256899,-1.152158 0,-0.654635 -0.261854,-1.230713 -0.549893,-1.885348 1.93772,-2.121018 3.718327,-4.739558 4.530074,-6.912946 2.435242,0.523708 3.901625,2.382871 3.901625,4.791928 0,3.535029 -2.985136,6.624906 -9.845711,7.907991 l 0.104742,0.497523 c 7.410468,-0.02619 12.621363,-2.251945 12.621363,-7.672323 0,-3.168433 -2.461428,-6.022642 -6.520165,-6.54635 0.02619,-0.314224 -0.07856,-0.602264 -0.314225,-0.864118 -0.523708,-0.549893 -1.30927,-0.837933 -2.3305,-0.995045 l -0.209483,0.314225 c 0.707005,0.471337 1.047416,0.916489 1.047416,1.466382 -1.414012,0.05237 -2.749467,0.314225 -4.006367,0.759377 0.130927,-0.890304 0.28804,-1.806793 0.471338,-2.697096 2.775652,-0.4713377 5.368007,-1.2045289 6.59872,-1.6758661 0.680821,-0.261854 1.021231,-0.6284496 1.021231,-1.2307138 0,-0.7593766 -0.759377,-1.178343 -2.147203,-1.178343 -0.314225,0 -2.016276,1.0997868 -4.922855,1.8067926 l 0.130927,-0.5760788 c 0.235669,-0.9688598 0.916489,-1.2830846 0.916489,-1.963905 0,-0.6808204 -1.859163,-1.571124 -3.377917,-1.571124 -0.523708,0 -1.30927,0.3665956 -1.859163,0.654635 l 0.02618,0.3665956 c 0.523708,0.1047416 1.073602,0.2356686 1.466383,0.392781 0.445152,0.1571124 0.549893,0.3142248 0.549893,0.785562 0,0.523708 -0.104741,1.3616408 -0.235668,2.3305006 -0.759377,0.1047416 -1.544939,0.1571124 -2.3566863,0.1571124 -1.4663824,0 -2.487613,-0.392781 -3.796883,-1.2568992 L 5.4292443,7.6364563 C 6.0315085,9.6265467 6.9218121,10.80489 9.0690149,10.80489 Z m 7.9341761,2.435242 c -0.576079,1.518753 -2.068647,3.639771 -3.535029,5.210895 -0.261854,-0.759377 -0.445152,-1.675866 -0.445152,-2.854209 0,-0.418966 0.02619,-0.890304 0.07856,-1.361641 1.387827,-0.628449 2.644726,-0.942674 3.901625,-0.995045 z m -5.656046,7.096243 c -1.335456,0.995046 -2.8542089,1.754422 -3.9539957,1.754422 -0.4451518,0 -0.6284496,-0.235668 -0.6284496,-0.733191 0,-1.64968 1.5973094,-4.189664 4.1896643,-5.944086 l -0.02619,0.995045 c 0,1.335456 0.130927,2.723282 0.418967,3.92781 z"
       id="text5"
       aria-label="あ" /><path
       id="rect1"
       style="display:inline;fill:#fefeff;fill-opacity:1;stroke:#000000;stroke-width:1.805;stroke-dasharray:none;stroke-opacity:1;paint-order:markers stroke fill"
       d="m 22.883875,12.41888 c -2.576791,0 -4.650879,2.074606 -4.650879,4.651396 v 2.15129 c -0.931549,0.0061 -1.679484,0.758342 -1.679484,1.691369 v 6.391342 c 0,0.936812 0.75404,1.690852 1.690852,1.690852 h 9.238713 c 0.936812,0 1.690853,-0.75404 1.690853,-1.690852 v -6.391342 c 0,-0.919334 -0.726208,-1.662915 -1.63866,-1.690336 v -2.152323 c 0,-2.57679 -2.074605,-4.651396 -4.651395,-4.651396 z m 0,2.729033 c 1.030716,0 1.860868,1.086923 1.860868,2.43706 v 1.636593 h -3.72122 v -1.636593 c 0,-1.350137 0.829635,-2.43706 1.860352,-2.43706 z" /><path
       style="display:inline;fill:#000000;fill-opacity:1;stroke:none;stroke-width:1.611;stroke-linejoin:bevel;stroke-dasharray:none;stroke-opacity:1;paint-order:stroke markers fill"
       d="m 22.862351,21.36272 c -0.241773,1.88e-4 -0.391928,0.03789 -0.646473,0.161231 -0.254294,0.123225 -0.437396,0.279829 -0.583426,0.499194 -0.498524,0.748878 -0.299059,1.666263 0.461987,2.123902 0.150783,0.09067 0.156758,0.09782 0.144177,0.171049 -0.0072,0.04202 -0.0335,0.228356 -0.05839,0.413928 -0.02488,0.185572 -0.07667,0.550182 -0.115239,0.810286 -0.03856,0.260105 -0.07711,0.530228 -0.08578,0.60048 -0.0087,0.07025 -0.02042,0.150479 -0.02584,0.177767 -0.0054,0.02728 -0.01642,0.118555 -0.02429,0.203089 -0.01267,0.136026 -0.0077,0.161365 0.03927,0.220658 0.02922,0.03685 0.07537,0.07623 0.102836,0.08733 0.02747,0.0111 0.39422,0.02088 0.814938,0.0217 l 0.764811,0.001 0.0832,-0.0832 c 0.0973,-0.0973 0.09753,-0.08768 0.0062,-0.696598 -0.01463,-0.09754 -0.03149,-0.214931 -0.03721,-0.26045 -0.0057,-0.04552 -0.05226,-0.375127 -0.103353,-0.732771 -0.05108,-0.357644 -0.09835,-0.698536 -0.10542,-0.75706 l -0.01292,-0.105937 0.147278,-0.06925 c 0.184588,-0.08615 0.448256,-0.345904 0.553455,-0.545703 0.199202,-0.378338 0.241081,-0.815727 0.114205,-1.190625 -0.210551,-0.622151 -0.795494,-1.050558 -1.434021,-1.050066 z"
       id="path3" /></g></svg>
