<?xml version="1.0" encoding="UTF-8" standalone="no"?>
<!-- Created with Inkscape (http://www.inkscape.org/) -->

<svg
   width="30mm"
   height="30mm"
   viewBox="0 0 30 30"
   version="1.1"
   id="svg1"
   xml:space="preserve"
   inkscape:version="1.4.4 (dcaf3e7, 2026-05-05)"
   sodipodi:docname="toolbar_symbols_light.svg"
   inkscape:export-filename="../src/ibus-marinamoji/icons/mode_dark_kyu.png"
   inkscape:export-xdpi="96"
   inkscape:export-ydpi="96"
   xmlns:inkscape="http://www.inkscape.org/namespaces/inkscape"
   xmlns:sodipodi="http://sodipodi.sourceforge.net/DTD/sodipodi-0.dtd"
   xmlns="http://www.w3.org/2000/svg"
   xmlns:svg="http://www.w3.org/2000/svg"><sodipodi:namedview
     id="namedview1"
     pagecolor="#ffffff"
     bordercolor="#000000"
     borderopacity="0.25"
     inkscape:showpageshadow="2"
     inkscape:pageopacity="0.0"
     inkscape:pagecheckerboard="0"
     inkscape:deskcolor="#d1d1d1"
     inkscape:document-units="mm"
     showguides="true"
     inkscape:zoom="2.0796716"
     inkscape:cx="-12.501974"
     inkscape:cy="123.09636"
     inkscape:window-width="1512"
     inkscape:window-height="921"
     inkscape:window-x="0"
     inkscape:window-y="33"
     inkscape:window-maximized="1"
     inkscape:current-layer="g21"
     showgrid="false"><sodipodi:guide
       position="19.31344,25.919696"
       orientation="0,-1"
       id="guide1"
       inkscape:locked="false" /><sodipodi:guide
       position="12.979936,270.43154"
       orientation="0,-1"
       id="guide2"
       inkscape:locked="false" /><sodipodi:guide
       position="3.9639517,279.17019"
       orientation="1,0"
       id="guide3"
       inkscape:locked="false" /><sodipodi:guide
       position="26.022565,275.55875"
       orientation="1,0"
       id="guide4"
       inkscape:locked="false" /><sodipodi:guide
       position="-11.297157,4.0017402"
       orientation="0,-1"
       id="guide5"
       inkscape:locked="false" /><sodipodi:guide
       position="31.142978,27.985507"
       orientation="0,-1"
       id="guide8"
       inkscape:locked="false" /></sodipodi:namedview><defs
     id="defs1" /><g
     inkscape:label="Light"
     inkscape:groupmode="layer"
     id="g21"
     style="display:inline"><rect
       style="display:inline;fill:#203859;stroke-width:1.61;stroke-linejoin:bevel;paint-order:stroke fill markers"
       id="rect5"
       width="26.022566"
       height="25.998259"
       x="1.9887171"
       y="2.0008707"
       ry="6.2886238" /><path
       style="font-size:11.7474px;line-height:0.9;font-family:'Noto Serif JP';-inkscape-font-specification:'Noto Serif JP, @wght=700';font-variation-settings:'wght' 700;text-orientation:upright;fill:#ffffff;stroke-width:0.903736;paint-order:markers stroke fill"
       d="m 7.7893704,18.793288 q 1.1375043,-1.214624 2.1207702,-2.429245 0.9832694,-1.233903 1.7930164,-2.390688 0.520551,-0.77119 1.002545,-1.619497 0.501276,-0.867587 0.88687,-1.658058 0.404874,-0.7904682 0.59767,-1.3495832 0.07713,-0.212075 0.05784,-0.385594 Q 14.22881,8.7871068 14.016733,8.59431 13.804657,8.3629529 13.496181,8.1894342 13.187705,8.0159185 12.840671,7.8423999 l 0.115661,-0.3277557 q 0.75191,-0.057846 1.388142,0 0.63623,0.057846 1.156784,0.3277557 0.347034,0.1735186 0.732627,0.481993 0.385596,0.2891969 0.655513,0.6169519 0.289195,0.327756 0.289195,0.578391 0,0.231359 -0.154236,0.404875 -0.15424,0.1542402 -0.366316,0.3084762 -0.192799,0.15424 -0.347036,0.385595 -0.347036,0.539832 -0.867589,1.253183 -0.520553,0.69407 -1.118222,1.465259 -0.597674,0.75191 -1.253184,1.465262 -0.983266,1.060384 -2.21717,2.236448 -1.2146237,1.176062 -2.7570024,2.08221 z m 10.4688936,3.720991 q -0.597671,0 -0.867587,-0.327757 -0.269915,-0.308475 -0.578392,-0.84831 -0.539831,-0.983266 -1.137503,-1.735175 -0.597673,-0.771188 -1.368862,-1.46526 -0.751908,-0.713349 -1.735175,-1.484539 l 0.231356,-0.308475 q 1.523099,0.366314 2.641323,0.925426 1.137505,0.559113 1.908695,1.156786 0.790467,0.578391 1.214624,1.041104 0.327755,0.347036 0.597671,0.829031 0.289194,0.462711 0.289194,0.886866 0,0.501274 -0.269916,0.906146 -0.269915,0.424157 -0.925428,0.424157 z M 15.8483,18.157057 q 0.674789,-0.829028 1.233902,-1.619495 0.559113,-0.809751 1.002545,-1.523101 0.462713,-0.732629 0.79047,-1.36886 0.0964,-0.192799 0.0193,-0.269917 -0.05784,-0.0964 -0.250638,-0.0964 -0.250637,0.0193 -0.636231,0.05784 -0.366314,0.0193 -0.771191,0.07713 -0.404874,0.05784 -0.751908,0.115661 -0.347035,0.03857 -0.559111,0.07713 -0.308476,0.05784 -0.501273,0.134954 -0.192798,0.07713 -0.404875,0.07713 -0.192798,0 -0.462712,-0.250635 -0.250639,-0.250638 -0.520553,-0.501273 l 0.05784,-0.79047 q 0.212076,0.0193 0.404873,0.05784 0.212077,0.0193 0.520553,0.0193 0.250635,0 0.713349,-0.03856 0.481993,-0.03857 1.021829,-0.07714 0.539831,-0.05783 1.002544,-0.115661 0.462715,-0.05784 0.694069,-0.0964 0.289197,-0.05784 0.501276,-0.212075 0.212075,-0.173519 0.385594,-0.308478 0.173516,-0.134954 0.366313,-0.134954 0.289196,0 0.713351,0.269918 0.424153,0.269916 0.829027,0.655511 0.404875,0.385593 0.674791,0.790467 0.289196,0.385594 0.289196,0.655512 0,0.269914 -0.269914,0.462713 -0.250639,0.173516 -0.578393,0.327754 -0.327757,0.15424 -0.539833,0.327756 -0.944707,0.886868 -1.966531,1.889414 -1.021826,0.983266 -2.275008,2.024372 z"
       id="text28"
       inkscape:label="odoriji"
       aria-label="々" /></g></svg>
