<?xml version="1.0" encoding="UTF-8" standalone="no"?>
<!-- Created with Inkscape (http://www.inkscape.org/) -->

<svg
   width="30mm"
   height="30mm"
   viewBox="0 0 30 30"
   version="1.1"
   id="svg1"
   xml:space="preserve"
   inkscape:version="1.4.4 (dcaf3e7, 2026-05-05)"
   sodipodi:docname="toolbar_roman_dark_lock.svg"
   inkscape:export-filename="../256/toolbar_roman_dark.png"
   inkscape:export-xdpi="216.74667"
   inkscape:export-ydpi="216.74667"
   xmlns:inkscape="http://www.inkscape.org/namespaces/inkscape"
   xmlns:sodipodi="http://sodipodi.sourceforge.net/DTD/sodipodi-0.dtd"
   xmlns="http://www.w3.org/2000/svg"
   xmlns:svg="http://www.w3.org/2000/svg"><sodipodi:namedview
     id="namedview1"
     pagecolor="#ffffff"
     bordercolor="#000000"
     borderopacity="0.25"
     inkscape:showpageshadow="2"
     inkscape:pageopacity="0.0"
     inkscape:pagecheckerboard="0"
     inkscape:deskcolor="#d1d1d1"
     inkscape:document-units="mm"
     showguides="true"
     inkscape:zoom="2.4406406"
     inkscape:cx="-10.652941"
     inkscape:cy="2.8680995"
     inkscape:window-width="1512"
     inkscape:window-height="921"
     inkscape:window-x="0"
     inkscape:window-y="33"
     inkscape:window-maximized="1"
     inkscape:current-layer="layer1"
     showgrid="false"><sodipodi:guide
       position="19.31344,25.919696"
       orientation="0,-1"
       id="guide1"
       inkscape:locked="false" /><sodipodi:guide
       position="12.979936,270.43154"
       orientation="0,-1"
       id="guide2"
       inkscape:locked="false" /><sodipodi:guide
       position="3.9639517,279.17019"
       orientation="1,0"
       id="guide3"
       inkscape:locked="false" /><sodipodi:guide
       position="26.022565,275.55875"
       orientation="1,0"
       id="guide4"
       inkscape:locked="false" /><sodipodi:guide
       position="-11.297157,4.0017402"
       orientation="0,-1"
       id="guide5"
       inkscape:locked="false" /></sodipodi:namedview><defs
     id="defs1" /><g
     inkscape:label="Dark"
     inkscape:groupmode="layer"
     id="layer1"
     style="display:inline"><path
       style="font-size:31.6059px;line-height:1.2;font-family:Arial;-inkscape-font-specification:'Arial, @opsz=32,wght=300';font-variation-settings:'opsz' 32, 'wght' 300;text-orientation:upright;fill:#ffffff;stroke-width:1.48153;paint-order:markers stroke fill"
       d="M 4.4132584,26.516087 13.101794,3.8919415 h 3.225407 L 25.586742,26.516087 H 22.176144 L 19.537175,19.664026 H 10.077011 L 7.5923675,26.516087 Z M 10.941235,17.22568 h 7.669986 l -2.361183,-6.265622 q -1.08028,-2.8550254 -1.604987,-4.691501 -0.432112,2.1759921 -1.219173,4.321119 z"
       id="text4"
       inkscape:label="A"
       aria-label="A" /><path
       id="rect1"
       style="display:inline;fill:#ffffff;fill-opacity:1;stroke:#000000;stroke-width:1.805;stroke-dasharray:none;stroke-opacity:1;paint-order:markers stroke fill"
       d="m 22.883875,12.41888 c -2.576791,0 -4.650879,2.074606 -4.650879,4.651396 v 2.15129 c -0.931549,0.0061 -1.679484,0.758342 -1.679484,1.691369 v 6.391342 c 0,0.936812 0.75404,1.690852 1.690852,1.690852 h 9.238713 c 0.936812,0 1.690853,-0.75404 1.690853,-1.690852 v -6.391342 c 0,-0.919334 -0.726208,-1.662915 -1.63866,-1.690336 v -2.152323 c 0,-2.57679 -2.074605,-4.651396 -4.651395,-4.651396 z m 0,2.729033 c 1.030716,0 1.860868,1.086923 1.860868,2.43706 v 1.636593 h -3.72122 v -1.636593 c 0,-1.350137 0.829635,-2.43706 1.860352,-2.43706 z" /><path
       style="display:inline;fill:#000000;fill-opacity:1;stroke:none;stroke-width:1.611;stroke-linejoin:bevel;stroke-dasharray:none;stroke-opacity:1;paint-order:stroke markers fill"
       d="m 22.862351,21.36272 c -0.241773,1.88e-4 -0.391928,0.03789 -0.646473,0.161231 -0.254294,0.123225 -0.437396,0.279829 -0.583426,0.499194 -0.498524,0.748878 -0.299059,1.666263 0.461987,2.123902 0.150783,0.09067 0.156758,0.09782 0.144177,0.171049 -0.0072,0.04202 -0.0335,0.228356 -0.05839,0.413928 -0.02488,0.185572 -0.07667,0.550182 -0.115239,0.810286 -0.03856,0.260105 -0.07711,0.530228 -0.08578,0.60048 -0.0087,0.07025 -0.02042,0.150479 -0.02584,0.177767 -0.0054,0.02728 -0.01642,0.118555 -0.02429,0.203089 -0.01267,0.136026 -0.0077,0.161365 0.03927,0.220658 0.02922,0.03685 0.07537,0.07623 0.102836,0.08733 0.02747,0.0111 0.39422,0.02088 0.814938,0.0217 l 0.764811,0.001 0.0832,-0.0832 c 0.0973,-0.0973 0.09753,-0.08768 0.0062,-0.696598 -0.01463,-0.09754 -0.03149,-0.214931 -0.03721,-0.26045 -0.0057,-0.04552 -0.05226,-0.375127 -0.103353,-0.732771 -0.05108,-0.357644 -0.09835,-0.698536 -0.10542,-0.75706 l -0.01292,-0.105937 0.147278,-0.06925 c 0.184588,-0.08615 0.448256,-0.345904 0.553455,-0.545703 0.199202,-0.378338 0.241081,-0.815727 0.114205,-1.190625 -0.210551,-0.622151 -0.795494,-1.050558 -1.434021,-1.050066 z"
       id="path3" /></g></svg>
