<?xml version="1.0" encoding="UTF-8" standalone="no"?>
<!-- Created with Inkscape (http://www.inkscape.org/) -->

<svg
   width="30mm"
   height="30mm"
   viewBox="0 0 30 30"
   version="1.1"
   id="svg1"
   xml:space="preserve"
   inkscape:version="1.4.4 (dcaf3e7, 2026-05-05)"
   sodipodi:docname="symbols_dark.svg"
   inkscape:export-filename="../src/ibus-marinamoji/icons/mode_dark_kyu.png"
   inkscape:export-xdpi="96"
   inkscape:export-ydpi="96"
   xmlns:inkscape="http://www.inkscape.org/namespaces/inkscape"
   xmlns:sodipodi="http://sodipodi.sourceforge.net/DTD/sodipodi-0.dtd"
   xmlns="http://www.w3.org/2000/svg"
   xmlns:svg="http://www.w3.org/2000/svg"><sodipodi:namedview
     id="namedview1"
     pagecolor="#ffffff"
     bordercolor="#000000"
     borderopacity="0.25"
     inkscape:showpageshadow="2"
     inkscape:pageopacity="0.0"
     inkscape:pagecheckerboard="0"
     inkscape:deskcolor="#d1d1d1"
     inkscape:document-units="mm"
     showguides="true"
     inkscape:zoom="1.4628963"
     inkscape:cx="-101.16917"
     inkscape:cy="140.47476"
     inkscape:window-width="1920"
     inkscape:window-height="1022"
     inkscape:window-x="1920"
     inkscape:window-y="30"
     inkscape:window-maximized="1"
     inkscape:current-layer="g21"
     showgrid="false"><sodipodi:guide
       position="19.31344,25.919696"
       orientation="0,-1"
       id="guide1"
       inkscape:locked="false" /><sodipodi:guide
       position="12.979936,270.43154"
       orientation="0,-1"
       id="guide2"
       inkscape:locked="false" /><sodipodi:guide
       position="3.9639517,279.17019"
       orientation="1,0"
       id="guide3"
       inkscape:locked="false" /><sodipodi:guide
       position="26.022565,275.55875"
       orientation="1,0"
       id="guide4"
       inkscape:locked="false" /><sodipodi:guide
       position="-11.297157,4.0017402"
       orientation="0,-1"
       id="guide5"
       inkscape:locked="false" /><sodipodi:guide
       position="31.142978,27.985507"
       orientation="0,-1"
       id="guide8"
       inkscape:locked="false" /></sodipodi:namedview><defs
     id="defs1" /><g
     inkscape:label="Light"
     inkscape:groupmode="layer"
     id="g21"
     style="display:inline"><rect
       style="display:inline;fill:none;fill-opacity:1;stroke:#ffffff;stroke-width:2;stroke-linejoin:bevel;stroke-dasharray:none;stroke-dashoffset:0;stroke-opacity:1"
       id="rect11"
       width="12.30226"
       height="5.598115"
       x="8.8488693"
       y="2.7944627"
       ry="1.5089717" /><rect
       style="display:inline;fill:#000000;fill-opacity:1;stroke:#ffffff;stroke-width:1.94943;stroke-linejoin:bevel;stroke-dasharray:none;stroke-opacity:1;paint-order:normal"
       id="rect9"
       width="26.063494"
       height="20.488159"
       x="1.9682537"
       y="6.3621712"
       ry="3.019542" /><path
       d="M 13.821562,11.616263 H 7.2969223 v -2.44674 h 6.5246397 z m 0,4.0779 H 7.2969223 v -2.44674 h 6.5246397 z"
       id="text21"
       style="font-size:8.1558px;font-family:'Noto Serif JP';-inkscape-font-specification:'Noto Serif JP, @wght=700';font-variation-settings:'wght' 700;fill:#fefefe;stroke-width:0.109352;fill-opacity:1"
       aria-label="〓" /><path
       d="M 9.3273434,24.177728 H 6.8572599 V 17.394 h 2.4700835 v 0.122424 q -0.5689113,0.266452 -0.9937945,0.727343 -0.4248832,0.46089 -0.6625297,1.101815 -0.2376466,0.633724 -0.2376466,1.440282 0,0.806558 0.2376466,1.447484 0.2376465,0.640925 0.6625297,1.101815 0.4248832,0.453689 0.9937945,0.720141 z m 4.1120056,-3.391864 q 0,-0.806558 -0.237647,-1.440282 -0.237646,-0.640925 -0.66253,-1.101815 -0.424883,-0.460891 -0.993794,-0.727343 V 17.394 h 2.470083 v 6.783728 h -2.470083 v -0.122424 q 0.568911,-0.266452 0.993794,-0.720141 0.424884,-0.46089 0.66253,-1.101815 0.237647,-0.640926 0.237647,-1.447484 z"
       id="text23"
       style="font-size:7.20141px;font-family:'Noto Serif JP';-inkscape-font-specification:'Noto Serif JP, @wght=700';font-variation-settings:'wght' 700;fill:#fefefe;stroke-width:0.0965557;fill-opacity:1"
       aria-label="【 】" /><path
       style="font-size:11.7474px;line-height:0.9;font-family:'Noto Serif JP';-inkscape-font-specification:'Noto Serif JP, @wght=700';font-variation-settings:'wght' 700;text-orientation:upright;fill:#fefefe;stroke-width:0.550659;paint-order:markers stroke fill;fill-opacity:1"
       d="m 15.079132,15.128364 q 0.693097,-0.740086 1.292214,-1.480172 0.599118,-0.751834 1.092508,-1.456678 0.31718,-0.469896 0.610865,-0.986781 0.305433,-0.528633 0.540381,-1.010277 0.246695,-0.4816431 0.364169,-0.8223177 0.04699,-0.1292214 0.03524,-0.234948 Q 19.002764,9.0314637 18.873542,8.9139897 18.744321,8.7730209 18.556363,8.6672943 18.368404,8.5615677 18.156951,8.4558411 l 0.07048,-0.1997058 q 0.458149,-0.035242 0.845813,0 0.387664,0.035242 0.704844,0.1997058 0.211453,0.1057266 0.446401,0.293685 0.234948,0.176211 0.399412,0.3759168 0.176211,0.1997058 0.176211,0.352422 0,0.1409688 -0.09398,0.2466954 -0.09398,0.093979 -0.223201,0.1879585 -0.117474,0.093979 -0.211453,0.2349482 -0.211453,0.328927 -0.528633,0.763581 -0.31718,0.422906 -0.681349,0.892802 -0.36417,0.458149 -0.763581,0.892803 -0.599118,0.646107 -1.350951,1.362698 -0.740087,0.716591 -1.679879,1.268719 z m 6.378838,2.267249 q -0.364169,0 -0.528633,-0.199706 -0.164463,-0.187958 -0.352422,-0.516886 -0.328927,-0.599117 -0.693096,-1.057266 -0.36417,-0.469896 -0.834066,-0.892802 -0.458148,-0.434654 -1.057266,-0.90455 l 0.140969,-0.187958 q 0.928045,0.2232 1.609394,0.563875 0.693097,0.340674 1.162993,0.704844 0.481643,0.352422 0.740086,0.634359 0.199706,0.211454 0.364169,0.505139 0.176211,0.281937 0.176211,0.54038 0,0.305433 -0.164463,0.552128 -0.164464,0.258443 -0.563876,0.258443 z M 19.989545,14.7407 q 0.411159,-0.505138 0.751834,-0.986781 0.340675,-0.493391 0.610865,-0.928045 0.281937,-0.446401 0.481643,-0.834065 0.05874,-0.117474 0.01175,-0.164464 -0.03524,-0.05874 -0.152717,-0.05874 -0.152716,0.01175 -0.387664,0.03524 -0.2232,0.01175 -0.469896,0.04699 -0.246695,0.03524 -0.458148,0.07048 -0.211454,0.0235 -0.340675,0.04699 -0.187958,0.03524 -0.305432,0.08223 -0.117474,0.04699 -0.246696,0.04699 -0.117474,0 -0.281937,-0.152716 -0.152717,-0.152716 -0.31718,-0.305432 l 0.03524,-0.481644 q 0.129221,0.01175 0.246695,0.03524 0.129222,0.01175 0.31718,0.01175 0.152716,0 0.434654,-0.02349 0.293685,-0.0235 0.622612,-0.04699 0.328927,-0.03524 0.610865,-0.07048 0.281938,-0.03524 0.422906,-0.05874 0.176211,-0.03524 0.305433,-0.129221 0.129221,-0.105727 0.234948,-0.187959 0.105726,-0.08223 0.2232,-0.08223 0.176211,0 0.434654,0.164464 0.258443,0.164464 0.505138,0.399412 0.246696,0.234948 0.411159,0.481643 0.176211,0.234948 0.176211,0.399412 0,0.164463 -0.164463,0.281937 -0.152716,0.105727 -0.352422,0.199706 -0.199706,0.09398 -0.328927,0.199706 -0.575623,0.54038 -1.198235,1.151245 -0.622612,0.599117 -1.386193,1.233477 z"
       id="text28"
       inkscape:label="odoriji"
       aria-label="々&#10;" /><rect
       style="font-variation-settings:'wght' 700;fill:#fefefe;fill-opacity:1;stroke-width:0.264583"
       id="rect28"
       width="4.6040115"
       height="4.7319012"
       x="17.170652"
       y="18.826855" /></g></svg>
